<?xml version="1.0" encoding="UTF-8" standalone="no"?>
<!-- Created with Inkscape (http://www.inkscape.org/) -->

<svg
   width="86.543747mm"
   height="29.824072mm"
   viewBox="0 0 86.543746 29.824072"
   version="1.1"
   id="svg1"
   xmlns="http://www.w3.org/2000/svg"
   xmlns:svg="http://www.w3.org/2000/svg">
  <defs
     id="defs1" />
  <g
     id="layer1"
     transform="translate(-188.43801,-17.545468)">
    <text
       xml:space="preserve"
       style="font-size:3.175px;text-align:start;writing-mode:lr-tb;direction:ltr;text-anchor:start;fill:#000000;stroke-width:0.264583"
       x="39.441738"
       y="136.07144"
       id="text5"><tspan
         id="tspan5"
         style="stroke-width:0.264583"
         x="39.441738"
         y="136.07144" /></text>
    <path
       style="font-stretch:semi-condensed;font-size:19.5236px;font-family:'DejaVu Sans';-inkscape-font-specification:'DejaVu Sans, Semi-Condensed';fill:#999999;stroke:#000000;stroke-width:0.2"
       d="m 274.77011,37.955791 q -0.26692,-0.171595 -0.58151,-0.247859 -0.31459,-0.0858 -0.68638,-0.0858 -1.34415,0 -2.05913,0.972367 -0.71497,0.962834 -0.71497,2.774105 v 5.624475 h -1.59201 V 36.316113 h 1.59201 v 1.658744 q 0.49571,-0.972367 1.29649,-1.439485 0.80077,-0.47665 1.9352,-0.47665 0.16206,0 0.36225,0.0286 0.20019,0.01907 0.43852,0.06673 z"
       id="path23" />
    <path
       id="path21"
       style="font-stretch:semi-condensed;font-size:19.5236px;font-family:'DejaVu Sans';-inkscape-font-specification:'DejaVu Sans, Semi-Condensed';fill:#999999;stroke:#000000;stroke-width:0.2"
       d="m 266.60986,41.216075 v 0.857971 h -7.26416 q 0.10487,1.811271 0.9819,2.764572 0.88657,0.943768 2.44999,0.943768 0.91517,0 1.7636,-0.247858 0.85797,-0.247859 1.69688,-0.743575 v 1.658743 q -0.84844,0.400387 -1.74454,0.610113 -0.88657,0.209726 -1.80174,0.209726 -2.30699,0 -3.65114,-1.487149 -1.33462,-1.487149 -1.33462,-4.022929 0,-2.621577 1.26789,-4.156392 1.27742,-1.544347 3.44141,-1.544347 1.9352,0 3.0601,1.391819 1.13443,1.382286 1.13443,3.765538 z m -1.58248,-0.514778 q -0.0191,-1.439484 -0.72451,-2.297455 -0.70544,-0.857971 -1.86847,-0.857971 -1.32509,0 -2.12586,0.829372 -0.79124,0.829372 -0.90564,2.335587 z" />
    <path
       style="font-stretch:semi-condensed;font-size:19.5236px;font-family:'DejaVu Sans';-inkscape-font-specification:'DejaVu Sans, Semi-Condensed';fill:#999999;stroke:#000000;stroke-width:0.2"
       d="m 214.31178,36.316113 h 1.58248 l 1.97333,8.331849 1.9638,-8.331849 h 1.85893 l 1.97334,8.331849 1.9638,-8.331849 h 1.58248 l -2.51672,10.676969 h -1.85894 l -2.06866,-8.751301 -2.07819,8.751301 h -1.85894 z"
       id="path15" />
    <path
       style="font-stretch:semi-condensed;font-size:19.5236px;font-family:'DejaVu Sans';-inkscape-font-specification:'DejaVu Sans, Semi-Condensed';fill:#999999;stroke:#000000;stroke-width:0.2"
       d="m 213.58727,37.955791 q -0.26693,-0.171595 -0.58152,-0.247859 -0.31459,-0.0858 -0.68637,-0.0858 -1.34416,0 -2.05913,0.972367 -0.71498,0.962834 -0.71498,2.774105 v 5.624475 h -1.59201 V 36.316113 h 1.59201 v 1.658744 q 0.49572,-0.972367 1.29649,-1.439485 0.80077,-0.47665 1.9352,-0.47665 0.16206,0 0.36226,0.0286 0.20019,0.01907 0.43851,0.06673 z"
       id="path14" />
    <path
       style="font-stretch:semi-condensed;font-size:18.9176px;font-family:'DejaVu Sans';-inkscape-font-specification:'DejaVu Sans, Semi-Condensed';stroke:#000000;stroke-width:0"
       d="m 268.69128,27.292622 q 0.58194,-1.145401 1.37633,-1.690391 0.7944,-0.544989 1.87514,-0.544989 1.45946,0 2.24461,1.136164 0.7944,1.126927 0.7944,3.214514 v 6.244286 h -1.5426 v -6.188863 q 0,-1.487175 -0.47109,-2.207669 -0.4711,-0.720495 -1.45023,-0.720495 -1.18235,0 -1.87513,0.877526 -0.69279,0.877525 -0.69279,2.392411 v 5.84709 h -1.53336 v -6.188863 q 0,-1.496412 -0.48033,-2.207669 -0.47109,-0.720495 -1.45946,-0.720495 -1.17311,0 -1.8659,0.886763 -0.68354,0.877525 -0.68354,2.383174 v 5.84709 h -1.5426 V 25.306644 h 1.5426 v 1.607257 q 0.52651,-0.951423 1.25624,-1.404041 0.72974,-0.452618 1.73658,-0.452618 1.01608,0 1.72734,0.5727 0.71126,0.572701 1.04379,1.66268 z"
       id="path33" />
    <path
       style="font-stretch:semi-condensed;font-size:18.9176px;font-family:'DejaVu Sans';-inkscape-font-specification:'DejaVu Sans, Semi-Condensed';stroke:#000000;stroke-width:0"
       d="m 252.90042,27.292622 q 0.58194,-1.145401 1.37633,-1.690391 0.79439,-0.544989 1.87513,-0.544989 1.45946,0 2.24462,1.136164 0.79439,1.126927 0.79439,3.214514 v 6.244286 h -1.5426 v -6.188863 q 0,-1.487175 -0.47109,-2.207669 -0.47109,-0.720495 -1.45023,-0.720495 -1.18235,0 -1.87513,0.877526 -0.69278,0.877525 -0.69278,2.392411 v 5.84709 h -1.53336 v -6.188863 q 0,-1.496412 -0.48033,-2.207669 -0.47109,-0.720495 -1.45947,-0.720495 -1.17311,0 -1.86589,0.886763 -0.68355,0.877525 -0.68355,2.383174 v 5.84709 h -1.5426 V 25.306644 h 1.5426 v 1.607257 q 0.52652,-0.951423 1.25625,-1.404041 0.72973,-0.452618 1.73658,-0.452618 1.01608,0 1.72734,0.5727 0.71125,0.572701 1.04379,1.66268 z"
       id="path32" />
    <path
       id="path30"
       style="font-stretch:semi-condensed;font-size:18.9176px;font-family:'DejaVu Sans';-inkscape-font-specification:'DejaVu Sans, Semi-Condensed';stroke:#000000;stroke-width:0"
       d="m 239.25613,26.498231 q -1.22854,0 -1.94903,1.071504 -0.71126,1.062268 -0.71126,2.918927 0,1.856659 0.71126,2.928164 0.71125,1.062267 1.94903,1.062267 1.22853,0 1.93979,-1.071504 0.71126,-1.071505 0.71126,-2.918927 0,-1.838185 -0.71126,-2.909689 -0.71126,-1.080742 -1.93979,-1.080742 z m 0,-1.440989 q 1.99521,0 3.13138,1.440989 1.1454,1.440989 1.1454,3.990431 0,2.540205 -1.1454,3.990431 -1.13617,1.44099 -3.13138,1.44099 -2.00446,0 -3.14062,-1.44099 -1.12693,-1.450226 -1.12693,-3.990431 0,-2.549442 1.12693,-3.990431 1.13616,-1.440989 3.14062,-1.440989 z" />
    <path
       style="font-stretch:semi-condensed;font-size:18.9176px;font-family:'DejaVu Sans';-inkscape-font-specification:'DejaVu Sans, Semi-Condensed';stroke:#000000;stroke-width:0"
       d="m 246.35379,19.989685 v 3.535625 q -1.52711,-1.576922 -3.25343,-2.357083 -1.72631,-0.780161 -3.66841,-0.780161 -3.81782,0 -5.85951,2.60607 -2.0251,2.58947 -2.0251,7.502826 0,4.896755 2.0251,7.502825 2.04169,2.589471 5.85951,2.589471 1.9421,0 3.66841,-0.780161 1.72632,-0.780161 3.25343,-2.357082 v 3.502425 q -1.57691,1.195141 -3.35302,1.792711 -1.77611,0.597571 -3.73481,0.597571 -5.07936,0 -7.9842,-3.43603 -2.90487,-3.452628 -2.90487,-9.41173 0,-5.975703 2.90487,-9.41173 2.90484,-3.452628 7.9842,-3.452628 1.99189,0 3.768,0.59757 1.77611,0.58097 3.31983,1.759511 z"
       id="path29" />
    <path
       style="font-stretch:semi-condensed;font-size:18.9176px;font-family:'DejaVu Sans';-inkscape-font-specification:'DejaVu Sans, Semi-Condensed';stroke:#000000;stroke-width:0"
       d="m 223.65619,21.279264 h 1.52413 v 14.372942 h -1.52413 z"
       id="path28" />
    <path
       id="path26"
       style="font-stretch:semi-condensed;font-size:18.9176px;font-family:'DejaVu Sans';-inkscape-font-specification:'DejaVu Sans, Semi-Condensed';stroke:#000000;stroke-width:0"
       d="m 216.84844,26.498231 q -1.22853,0 -1.94903,1.071504 -0.71126,1.062268 -0.71126,2.918927 0,1.856659 0.71126,2.928164 0.71126,1.062267 1.94903,1.062267 1.22854,0 1.93979,-1.071504 0.71126,-1.071505 0.71126,-2.918927 0,-1.838185 -0.71126,-2.909689 -0.71125,-1.080742 -1.93979,-1.080742 z m 0,-1.440989 q 1.99522,0 3.13138,1.440989 1.1454,1.440989 1.1454,3.990431 0,2.540205 -1.1454,3.990431 -1.13616,1.44099 -3.13138,1.44099 -2.00445,0 -3.14062,-1.44099 -1.12692,-1.450226 -1.12692,-3.990431 0,-2.549442 1.12692,-3.990431 1.13617,-1.440989 3.14062,-1.440989 z" />
    <path
       id="path24"
       style="font-stretch:semi-condensed;font-size:18.9176px;font-family:'DejaVu Sans';-inkscape-font-specification:'DejaVu Sans, Semi-Condensed';stroke:#000000;stroke-width:0"
       d="m 206.43822,26.498231 q -1.22854,0 -1.94903,1.071504 -0.71126,1.062268 -0.71126,2.918927 0,1.856659 0.71126,2.928164 0.71126,1.062267 1.94903,1.062267 1.22853,0 1.93979,-1.071504 0.71126,-1.071505 0.71126,-2.918927 0,-1.838185 -0.71126,-2.909689 -0.71126,-1.080742 -1.93979,-1.080742 z m 0,-1.440989 q 1.99521,0 3.13138,1.440989 1.1454,1.440989 1.1454,3.990431 0,2.540205 -1.1454,3.990431 -1.13617,1.44099 -3.13138,1.44099 -2.00445,0 -3.14062,-1.44099 -1.12693,-1.450226 -1.12693,-3.990431 0,-2.549442 1.12693,-3.990431 1.13617,-1.440989 3.14062,-1.440989 z" />
    <path
       style="font-stretch:semi-condensed;font-size:18.9176px;font-family:'DejaVu Sans';-inkscape-font-specification:'DejaVu Sans, Semi-Condensed';stroke:#000000;stroke-width:0"
       d="m 188.65443,17.545468 h 19.02171 v 2.916819 h -7.98711 v 22.699732 h -3.04749 V 20.462287 h -7.98711 z"
       id="text8" />
    <path
       style="font-stretch:semi-condensed;font-size:19.5236px;font-family:'DejaVu Sans';-inkscape-font-specification:'DejaVu Sans, Semi-Condensed';fill:#999999;stroke:#000000;stroke-width:0.2"
       d="m 245.93276,37.955791 q -0.26692,-0.171595 -0.58151,-0.247859 -0.31459,-0.0858 -0.68638,-0.0858 -1.34415,0 -2.05913,0.972367 -0.71497,0.962834 -0.71497,2.774105 v 5.624475 h -1.59201 V 36.316113 h 1.59201 v 1.658744 q 0.49571,-0.972367 1.29649,-1.439485 0.80077,-0.47665 1.9352,-0.47665 0.16206,0 0.36225,0.0286 0.2002,0.01907 0.43852,0.06673 z"
       id="path18" />
    <path
       id="path16"
       style="font-stretch:semi-condensed;font-size:19.5236px;font-family:'DejaVu Sans';-inkscape-font-specification:'DejaVu Sans, Semi-Condensed';fill:#999999;stroke:#000000;stroke-width:0.2"
       d="m 233.96884,41.625999 q -1.91614,0 -2.65971,0.486183 -0.73404,0.486183 -0.73404,1.658743 0,0.934235 0.55291,1.487149 0.55292,0.543382 1.50622,0.543382 1.31555,0 2.10679,-1.029565 0.79124,-1.039098 0.79124,-2.755039 v -0.390853 z m 3.14589,-0.724509 v 6.091592 h -1.58248 v -1.620611 q -0.53385,0.972366 -1.34415,1.439484 -0.80078,0.457584 -1.97334,0.457584 -1.47761,0 -2.34512,-0.915169 -0.8675,-0.924701 -0.8675,-2.469049 0,-1.801738 1.07723,-2.716907 1.08676,-0.915169 3.24122,-0.915169 h 2.21166 v -0.171594 q 0,-1.210692 -0.71498,-1.868469 -0.71497,-0.667311 -2.01146,-0.667311 -0.81984,0 -1.60155,0.219259 -0.7817,0.21926 -1.50621,0.657778 v -1.620611 q 0.8675,-0.371788 1.67781,-0.552915 0.81984,-0.19066 1.59201,-0.19066 2.08773,0 3.11729,1.201159 1.02957,1.201159 1.02957,3.641609 z" />
    <path
       style="font-stretch:semi-condensed;font-size:19.5236px;font-family:'DejaVu Sans';-inkscape-font-specification:'DejaVu Sans, Semi-Condensed';fill:#999999;stroke:#000000;stroke-width:0.2;stroke-dasharray:none"
       d="m 188.53801,21.524924 h 13.27852 v 2.924029 h -10.14809 v 7.56807 h 9.16768 v 2.924027 h -9.16768 v 12.263716 h -3.13043 z"
       id="text9" />
    <path
       id="path19"
       style="font-stretch:semi-condensed;font-size:19.5236px;font-family:'DejaVu Sans';-inkscape-font-specification:'DejaVu Sans, Semi-Condensed';fill:#999999;stroke:#000000;stroke-width:0.2"
       d="m 253.22671,37.936721 v -5.777003 h 1.58248 v 14.83336 h -1.58248 v -1.601541 q -0.49572,0.9533 -1.25836,1.420418 -0.7531,0.457584 -1.8208,0.457584 -1.74454,0 -2.84084,-1.544347 -1.08676,-1.544347 -1.08676,-4.061061 0,-2.516714 1.08676,-4.061062 1.0963,-1.544347 2.84084,-1.544347 1.0677,0 1.8208,0.467117 0.76264,0.457585 1.25836,1.410886 z m -5.37662,3.727406 q 0,1.9352 0.71498,3.041029 0.71497,1.096296 1.9638,1.096296 1.25836,0 1.97333,-1.096296 0.72451,-1.105829 0.72451,-3.041029 0,-1.935201 -0.72451,-3.031497 -0.71497,-1.105829 -1.97333,-1.105829 -1.24883,0 -1.9638,1.105829 -0.71498,1.096296 -0.71498,3.031497 z" />
    <path
       id="path12"
       style="font-stretch:semi-condensed;font-size:19.5236px;font-family:'DejaVu Sans';-inkscape-font-specification:'DejaVu Sans, Semi-Condensed';fill:#999999;stroke:#000000;stroke-width:0.2"
       d="m 200.99416,37.545871 q -1.26789,0 -2.01146,1.105829 -0.73404,1.096296 -0.73404,3.012431 0,1.916134 0.73404,3.021963 0.73404,1.096296 2.01146,1.096296 1.26789,0 2.00193,-1.105829 0.73405,-1.105829 0.73405,-3.01243 0,-1.897069 -0.73405,-3.002898 -0.73404,-1.115362 -2.00193,-1.115362 z m 0,-1.487149 q 2.05913,0 3.23169,1.487149 1.1821,1.487149 1.1821,4.11826 0,2.621577 -1.1821,4.118259 -1.17256,1.487149 -3.23169,1.487149 -2.06866,0 -3.24122,-1.487149 -1.16303,-1.496682 -1.16303,-4.118259 0,-2.631111 1.16303,-4.11826 1.17256,-1.487149 3.24122,-1.487149 z" />
  </g>
</svg>
